<?xml version="1.0" standalone="no"?><!DOCTYPE svg PUBLIC "-//W3C//DTD SVG 1.1//EN" "http://www.w3.org/Graphics/SVG/1.1/DTD/svg11.dtd"><svg width="512px" height="512px" version="1.1" xmlns="http://www.w3.org/2000/svg" xmlns:xlink="http://www.w3.org/1999/xlink" xml:space="preserve" style="fill-rule:evenodd;clip-rule:evenodd;stroke-linejoin:round;stroke-miterlimit:1.41421;"><g><g id="Explosion"><g transform="matrix(0.898473,0,0,0.9177,25.5377,25.9686)"><path d="M256.742,19.5364c130.46,0 236.219,103.484 236.219,231.137c0,127.654 -105.759,231.138 -236.219,231.138c-130.46,0 -236.219,-103.484 -236.219,-231.138c0,-127.654 105.759,-231.137 236.219,-231.137Z" style="fill:url(#tag1);"/></g><g transform="matrix(0.473961,0,0,0.484103,134.528,134.66)"><path d="M256.742,19.5364c130.46,0 236.219,103.484 236.219,231.137c0,127.654 -105.759,231.138 -236.219,231.138c-130.46,0 -236.219,-103.484 -236.219,-231.138c0,-127.654 105.759,-231.137 236.219,-231.137Z" style="fill:url(#tag2);"/></g><g transform="matrix(0.284211,0,0,0.290293,183.245,183.243)"><path d="M256.742,19.5364c130.46,0 236.219,103.484 236.219,231.137c0,127.654 -105.759,231.138 -236.219,231.138c-130.46,0 -236.219,-103.484 -236.219,-231.138c0,-127.654 105.759,-231.137 236.219,-231.137Z" style="fill:url(#tag3);"/></g><g id="ExplosionStar-02" transform="matrix(-0.35561,1.01818,-1.01818,-0.35561,601.379,74.5122)"><path id="ExplosionStar-Outer" d="M212.12,227.957c10.3803,-17.931 -68.0136,-97.3091 -68.0136,-97.3091c-0.00608262,-4.80325 79.406,72.9618 94.663,67.9284c17.428,-5.74962 27.0497,-164.651 29.4529,-162.022c0,0 -0.137529,151.191 13.9627,159.008c15.2771,8.46961 116.174,-44.1148 116.174,-44.1148c0,0 -91.5387,80.7438 -88.1137,97.6622c2.41975,11.9528 162.189,66.3878 162.189,66.3878c0,0 -170.016,-51.9334 -181.01,-38.1161c-10.1438,12.7489 53.2803,182.427 53.2803,182.427c0,0 -72.3032,-155.665 -89.5643,-156.976c-14.7784,-1.1225 -76.3152,137.873 -76.3152,137.873c0,0 56.5601,-141.442 44.7247,-151.631c-12.2805,-10.5723 -120.341,52.4016 -120.341,52.4016c0,0 97.6772,-62.1469 94.1559,-82.8377c-3.17812,-18.674 -155.342,-57.0509 -155.342,-57.0509c0,0 161.527,41.1735 170.098,26.3682Z" style="fill:#ffc900;"/><g id="ExplosionStar-Inner" transform="matrix(0.773815,0,0,0.773815,58.1813,56.1316)"><path d="M215.268,230.354c10.3803,-17.931 -57.3212,-87.3986 -57.3212,-87.3986c-0.00608262,-4.80325 70.5386,63.2698 85.7956,58.2364c17.428,-5.74962 22.9342,-167.19 25.3374,-164.561c0,0 1.67246,157.279 15.7726,165.096c15.2771,8.46961 124.169,-57.7585 124.169,-57.7585c0,0 -106.658,82.4562 -103.233,99.3747c2.41975,11.9528 140.595,63.6798 140.595,63.6798c0,0 -145.344,-40.5489 -156.338,-26.7315c-10.1438,12.7489 54.6585,179.519 54.6585,179.519c0,0 -69.7377,-160.533 -86.9988,-161.844c-14.7784,-1.1225 -67.5682,125.956 -67.5682,125.956c0,0 48.5199,-128.216 35.0784,-136.168c-6.41417,-3.79432 -85.9198,28.2829 -85.9198,28.2829c0,0 69.5684,-32.4807 66.047,-53.1715c-3.17812,-18.674 -128.445,-50.3691 -128.445,-50.3691c0,0 129.799,32.6634 138.37,17.8581Z" style="fill:#ffe600;"/></g></g><g id="ExplosionStar-01"><path id="ExplosionStar-Outer1" d="M212.12,227.957c10.3803,-17.931 -68.0136,-97.3091 -68.0136,-97.3091c-0.00608262,-4.80325 79.7999,80.1993 95.0568,75.1659c17.428,-5.74962 26.6559,-171.888 29.0591,-169.259c0,0 -2.85018,163.185 11.25,171.002c15.2771,8.46961 118.886,-56.1091 118.886,-56.1091c0,0 -92.7205,77.6542 -89.2955,94.5727c2.41975,11.9528 163.37,69.4773 163.37,69.4773c0,0 -163.29,-38.8628 -174.284,-25.0455c-10.1438,12.7489 46.5545,169.357 46.5545,169.357c0,0 -72.7162,-147.753 -89.9773,-149.064c-14.7784,-1.1225 -75.9023,129.961 -75.9023,129.961c0,0 55.6149,-133.418 43.7795,-143.607c-12.2805,-10.5723 -119.395,44.3773 -119.395,44.3773c0,0 102.519,-59.2956 98.9977,-79.9864c-3.17812,-18.674 -160.184,-59.9023 -160.184,-59.9023c0,0 161.527,41.1735 170.098,26.3682Z" style="fill:#ffe700;"/><g id="ExplosionStar-Inner1" transform="matrix(0.773815,0,0,0.773815,58.1813,56.1316)"><path d="M212.12,227.957c10.3803,-17.931 -65.2675,-95.0857 -65.2675,-95.0857c-0.00608262,-4.80325 77.0537,77.976 92.3107,72.9426c17.428,-5.74962 26.6559,-171.888 29.0591,-169.259c0,0 -2.85018,163.185 11.25,171.002c15.2771,8.46961 118.396,-53.8211 118.396,-53.8211c0,0 -92.23,75.3663 -88.805,92.2848c2.41975,11.9528 156.932,68.2026 156.932,68.2026c0,0 -156.852,-37.5881 -167.846,-23.7708c-10.1438,12.7489 46.5545,169.357 46.5545,169.357c0,0 -72.7162,-147.753 -89.9773,-149.064c-14.7784,-1.1225 -72.0782,126.828 -72.0782,126.828c0,0 51.7909,-130.284 39.9555,-140.473c-12.2805,-10.5723 -115.739,44.3773 -115.739,44.3773c0,0 98.8625,-59.2956 95.3411,-79.9864c-3.17812,-18.674 -152.736,-55.2324 -152.736,-55.2324c0,0 154.079,36.5036 162.649,21.6983Z" style="fill:#ffe69d;"/></g></g></g></g><defs><radialGradient id="tag1" cx="0" cy="0" r="1" gradientUnits="userSpaceOnUse" gradientTransform="matrix(236.219,0,0,231.138,256.742,250.674)"><stop offset="0%" style="stop-color:#ff3737;stop-opacity:0.898039"/><stop offset="100%" style="stop-color:#ffb702;stop-opacity:0.8"/></radialGradient><radialGradient id="tag2" cx="0" cy="0" r="1" gradientUnits="userSpaceOnUse" gradientTransform="matrix(236.219,0,0,231.138,256.742,250.674)"><stop offset="0%" style="stop-color:#ece594;stop-opacity:0.796078"/><stop offset="100%" style="stop-color:#f26100;stop-opacity:0.901961"/></radialGradient><radialGradient id="tag3" cx="0" cy="0" r="1" gradientUnits="userSpaceOnUse" gradientTransform="matrix(236.219,0,0,231.138,256.742,250.674)"><stop offset="0%" style="stop-color:#fff044;stop-opacity:1"/><stop offset="65%" style="stop-color:#ffd53a;stop-opacity:1"/><stop offset="84%" style="stop-color:#ff8c20;stop-opacity:1"/><stop offset="100%" style="stop-color:#ff3500;stop-opacity:1"/><stop offset="100%" style="stop-color:#ff3500;stop-opacity:1"/></radialGradient></defs></svg>